<svg width="23" height="27" viewBox="0 0 23 27" fill="none" xmlns="http://www.w3.org/2000/svg">
<path d="M3.86381 25.7727L1.31836 23.2273" stroke="#352C2C"/>
<path d="M21.3638 25.7727L18.8184 23.2273" stroke="#352C2C"/>
<path d="M3.86381 8.27272L1.31836 5.72726" stroke="#352C2C"/>
<path d="M21.6822 7.95454L19.1367 5.40909" stroke="#352C2C"/>
<rect x="4.04492" y="8.13635" width="17.4545" height="17.4545" fill="#352C2C" stroke="#352C2C"/>
<rect x="1.5" y="5.5909" width="17.4545" height="17.4545" stroke="#352C2C"/>
<path d="M1 23.5454V5.0909L3.54545 7.63635V26.0909L1 23.5454Z" fill="#272222"/>
<path d="M8.00009 7.63635C8.00009 7.05137 8.11531 5.3228 8.33917 4.78235C8.56303 4.2419 8.89115 3.75084 9.30479 3.33719C9.71844 2.92355 10.2095 2.59543 10.75 2.37157C11.2904 2.14771 11.8697 2.03249 12.4546 2.03249C13.0396 2.03249 13.6189 2.14771 14.1593 2.37157C14.6998 2.59543 15.1908 2.92355 15.6045 3.33719C16.0181 3.75084 16.3462 4.2419 16.5701 4.78235C16.794 5.3228 16.9092 7.05137 16.9092 7.63635L16.3962 7.63635C16.3962 7.11874 16.2943 5.45687 16.0962 4.97865C15.8981 4.50044 15.6078 4.06592 15.2418 3.69991C14.8757 3.3339 14.4412 3.04356 13.963 2.84548C13.4848 2.6474 12.9723 2.54544 12.4546 2.54544C11.937 2.54544 11.4245 2.6474 10.9463 2.84548C10.468 3.04356 10.0335 3.3339 9.66751 3.69991C9.3015 4.06592 9.01116 4.50044 8.81308 4.97865C8.615 5.45687 8.51305 7.11874 8.51305 7.63635L8.00009 7.63635Z" fill="#352C2C"/>
<path d="M6.09091 5.60387C6.09091 5.01889 6.20613 3.29032 6.42999 2.74987C6.65385 2.20942 6.98197 1.71835 7.39562 1.30471C7.80926 0.891065 8.30032 0.562945 8.84077 0.339084C9.38122 0.115222 9.96047 1.11732e-06 10.5455 1.09175e-06C11.1304 1.06618e-06 11.7097 0.115221 12.2501 0.339083C12.7906 0.562945 13.2817 0.891065 13.6953 1.30471C14.1089 1.71835 14.4371 2.20942 14.6609 2.74987C14.8848 3.29032 15 5.01889 15 5.60387L14.487 5.60387C14.487 5.08625 14.3851 3.42438 14.187 2.94617C13.9889 2.46795 13.6986 2.03343 13.3326 1.66742C12.9666 1.30141 12.5321 1.01108 12.0538 0.812993C11.5756 0.61491 11.0631 0.512957 10.5455 0.512957C10.0278 0.512957 9.51529 0.61491 9.03707 0.812993C8.55886 1.01108 8.12434 1.30141 7.75833 1.66742C7.39232 2.03343 7.10198 2.46795 6.9039 2.94617C6.70582 3.42438 6.60387 5.08625 6.60387 5.60387L6.09091 5.60387Z" fill="#352C2C"/>
<path d="M7.5 17L11 20.5L18.5 13" stroke="#F5F3F3" stroke-width="1.5" stroke-linecap="round"/>
</svg>
