<svg width="141" height="38" viewBox="0 0 141 38" fill="none" xmlns="http://www.w3.org/2000/svg">
<path d="M62.571 11.5455H67.7955L72.2273 22.3523H72.4318L76.8636 11.5455H82.0881V29H77.9801V18.2784H77.8352L73.642 28.8892H71.017L66.8239 18.2188H66.679V29H62.571V11.5455ZM88.4098 29.2216C87.5746 29.2216 86.8331 29.0824 86.1854 28.804C85.5433 28.5199 85.0348 28.0937 84.6598 27.5256C84.2905 26.9517 84.1058 26.233 84.1058 25.3693C84.1058 24.642 84.2337 24.0284 84.4893 23.5284C84.745 23.0284 85.0973 22.6222 85.5462 22.3097C85.995 21.9972 86.5121 21.7614 87.0973 21.6023C87.6825 21.4375 88.3075 21.3267 88.9723 21.2699C89.7166 21.2017 90.3161 21.1307 90.7706 21.0568C91.2251 20.9773 91.5547 20.8665 91.7592 20.7244C91.9695 20.5767 92.0746 20.3693 92.0746 20.1023V20.0597C92.0746 19.6222 91.924 19.2841 91.6229 19.0455C91.3217 18.8068 90.9155 18.6875 90.4041 18.6875C89.853 18.6875 89.4098 18.8068 89.0746 19.0455C88.7393 19.2841 88.5263 19.6136 88.4354 20.0341L84.5916 19.8977C84.7053 19.1023 84.9979 18.392 85.4695 17.767C85.9467 17.1364 86.6001 16.642 87.4297 16.2841C88.2649 15.9205 89.2678 15.7386 90.4382 15.7386C91.2734 15.7386 92.0433 15.8381 92.7479 16.0369C93.4524 16.2301 94.0661 16.5142 94.5888 16.8892C95.1115 17.2585 95.5149 17.7131 95.799 18.2528C96.0888 18.7926 96.2337 19.4091 96.2337 20.1023V29H92.3132V27.1761H92.2109C91.978 27.6193 91.6797 27.9943 91.3161 28.3011C90.9581 28.608 90.5348 28.8381 90.0462 28.9915C89.5632 29.1449 89.0178 29.2216 88.4098 29.2216ZM89.6967 26.4943C90.1456 26.4943 90.549 26.4034 90.907 26.2216C91.2706 26.0398 91.5604 25.7898 91.7763 25.4716C91.9922 25.1477 92.1001 24.7727 92.1001 24.3466V23.1023C91.9808 23.1648 91.8359 23.2216 91.6655 23.2727C91.5007 23.3239 91.3189 23.3722 91.12 23.4176C90.9212 23.4631 90.7166 23.5028 90.5064 23.5369C90.2962 23.571 90.0945 23.6023 89.9013 23.6307C89.5092 23.6932 89.174 23.7898 88.8956 23.9205C88.6229 24.0511 88.4126 24.2216 88.2649 24.4318C88.1229 24.6364 88.0518 24.8807 88.0518 25.1648C88.0518 25.5966 88.2053 25.9261 88.5121 26.1534C88.8246 26.3807 89.2195 26.4943 89.6967 26.4943ZM102.728 23.6051L106.913 15.9091H110.918V29H106.972V21.2784L102.796 29H98.782V15.9091H102.728V23.6051ZM106.538 11.2727H109.282C109.276 12.3409 108.873 13.1989 108.072 13.8466C107.276 14.4943 106.197 14.8182 104.833 14.8182C103.469 14.8182 102.387 14.4943 101.586 13.8466C100.79 13.1989 100.396 12.3409 100.401 11.2727H103.12C103.114 11.6477 103.242 11.9886 103.504 12.2955C103.765 12.6023 104.208 12.7557 104.833 12.7557C105.441 12.7557 105.876 12.6051 106.137 12.304C106.398 12.0028 106.532 11.6591 106.538 11.2727ZM113.571 29V15.9091H117.739V20.7841H118.659L121.838 15.9091H126.662L122.256 22.4631L126.705 29H121.821L118.949 24.6534H117.739V29H113.571ZM131.699 29.2216C130.864 29.2216 130.122 29.0824 129.474 28.804C128.832 28.5199 128.324 28.0937 127.949 27.5256C127.58 26.9517 127.395 26.233 127.395 25.3693C127.395 24.642 127.523 24.0284 127.778 23.5284C128.034 23.0284 128.386 22.6222 128.835 22.3097C129.284 21.9972 129.801 21.7614 130.386 21.6023C130.972 21.4375 131.597 21.3267 132.261 21.2699C133.006 21.2017 133.605 21.1307 134.06 21.0568C134.514 20.9773 134.844 20.8665 135.048 20.7244C135.259 20.5767 135.364 20.3693 135.364 20.1023V20.0597C135.364 19.6222 135.213 19.2841 134.912 19.0455C134.611 18.8068 134.205 18.6875 133.693 18.6875C133.142 18.6875 132.699 18.8068 132.364 19.0455C132.028 19.2841 131.815 19.6136 131.724 20.0341L127.881 19.8977C127.994 19.1023 128.287 18.392 128.759 17.767C129.236 17.1364 129.889 16.642 130.719 16.2841C131.554 15.9205 132.557 15.7386 133.727 15.7386C134.563 15.7386 135.332 15.8381 136.037 16.0369C136.741 16.2301 137.355 16.5142 137.878 16.8892C138.401 17.2585 138.804 17.7131 139.088 18.2528C139.378 18.7926 139.523 19.4091 139.523 20.1023V29H135.602V27.1761H135.5C135.267 27.6193 134.969 27.9943 134.605 28.3011C134.247 28.608 133.824 28.8381 133.335 28.9915C132.852 29.1449 132.307 29.2216 131.699 29.2216ZM132.986 26.4943C133.435 26.4943 133.838 26.4034 134.196 26.2216C134.56 26.0398 134.849 25.7898 135.065 25.4716C135.281 25.1477 135.389 24.7727 135.389 24.3466V23.1023C135.27 23.1648 135.125 23.2216 134.955 23.2727C134.79 23.3239 134.608 23.3722 134.409 23.4176C134.21 23.4631 134.006 23.5028 133.795 23.5369C133.585 23.571 133.384 23.6023 133.19 23.6307C132.798 23.6932 132.463 23.7898 132.185 23.9205C131.912 24.0511 131.702 24.2216 131.554 24.4318C131.412 24.6364 131.341 24.8807 131.341 25.1648C131.341 25.5966 131.494 25.9261 131.801 26.1534C132.114 26.3807 132.509 26.4943 132.986 26.4943Z" fill="#302626"/>
<circle cx="19" cy="19" r="17" fill="#010101" stroke="black" stroke-width="4"/>
<circle cx="19" cy="19" r="13.4375" fill="white" stroke="black" stroke-width="4"/>
<circle cx="19" cy="19" r="13.4375" stroke="#F5DADA" stroke-width="4"/>
<path d="M19.0399 28.5H13.429V17.9015L12.1821 19.7719L9.06494 17.9015C10.3118 15.4078 11.5587 11.0437 16.5462 11.0437H19.0399" stroke="black"/>
<path d="M19.0396 28.5H24.6506V17.9015L25.8975 19.7719L29.0146 17.9015C27.7678 15.4078 26.5209 11.0437 21.5334 11.0437H19.0396" stroke="black"/>
<path d="M21.5334 12.2906C21.5334 12.6181 21.4689 12.9424 21.3436 13.2449C21.2183 13.5475 21.0346 13.8224 20.803 14.054C20.5714 14.2855 20.2965 14.4692 19.994 14.5945C19.6914 14.7199 19.3671 14.7844 19.0396 14.7844C18.7122 14.7844 18.3879 14.7199 18.0853 14.5945C17.7828 14.4692 17.5079 14.2855 17.2763 14.054C17.0447 13.8224 16.861 13.5475 16.7357 13.2449C16.6104 12.9424 16.5459 12.6181 16.5459 12.2906L19.0396 12.2906H21.5334Z" fill="black"/>
<path d="M17.2352 22.9913L18.5547 21.6719L20.5702 23.6874L26.7188 19.4453L27.9642 24.1779L33.9922 21.6719L30.4297 33.5469L17.6522 28.4649L7.57031 32.6562L4.30469 23.1562L8.09723 24.6646L8.46094 19.1484L13.1643 22.2311L14.1016 20.4844L17.2352 22.9913Z" fill="black"/>
<path d="M7.57031 32.6562L18.5547 21.6719L30.4297 33.5469M7.57031 32.6562L8.46094 19.1484L30.4297 33.5469M7.57031 32.6562L33.9922 21.6719L30.4297 33.5469M7.57031 32.6562L26.7188 19.4453L30.4297 33.5469M7.57031 32.6562L10.2422 23.0078L30.4297 33.5469M7.57031 32.6562L14.1016 20.4844L30.4297 33.5469M7.57031 32.6562L4.30469 23.1562L30.4297 33.5469" stroke="#FFFAFA" stroke-width="0.5"/>
<path d="M7.71875 32.8047L18.7031 27.1641L30.4297 33.5469L18.7031 36.0703L7.71875 32.8047Z" fill="black" stroke="white" stroke-width="0.5"/>
</svg>
